<svg id="图层_1" data-name="图层 1" xmlns="http://www.w3.org/2000/svg" viewBox="0 0 300 60">
    <defs>
        <style>.cls-1{fill:none;stroke:#000;stroke-miterlimit:10;stroke-width:10px;}</style>
    </defs>
    <title>dujunhui3</title>
    <path class="cls-1" d="M35.32,26.23A15,15,0,0,0,32,20.67a11.49,11.49,0,0,0-5.17-3.16,24.75,24.75,0,0,0-6.53-.66H7.67V51.18h13a21,21,0,0,0,6.14-.73,12.2,12.2,0,0,0,4.87-2.74,15.14,15.14,0,0,0,3.68-6.07,22.56,22.56,0,0,0,1.05-7.31A25.34,25.34,0,0,0,35.32,26.23Z"/>
    <path class="cls-1" d="M78.2,11.86V32.07a52,52,0,0,1-.63,9.79,10.84,10.84,0,0,1-2.32,4.83,11.74,11.74,0,0,1-4.53,3.14A19.71,19.71,0,0,1,63.31,51a21.32,21.32,0,0,1-8.36-1.27,12,12,0,0,1-4.5-3.31,10.61,10.61,0,0,1-2.18-4.27,46.74,46.74,0,0,1-.76-9.77V11.86"/>
    <path class="cls-1" d="M157.2,11.86V32.07a52,52,0,0,1-.63,9.79,10.84,10.84,0,0,1-2.32,4.83,11.74,11.74,0,0,1-4.53,3.14,19.71,19.71,0,0,1-7.4,1.17,21.32,21.32,0,0,1-8.36-1.27,12,12,0,0,1-4.5-3.31,10.61,10.61,0,0,1-2.18-4.27,46.74,46.74,0,0,1-.76-9.77V11.86"/>
    <path class="cls-1" d="M278.66,11.86V32.07a52,52,0,0,1-.63,9.79,10.84,10.84,0,0,1-2.32,4.83,11.74,11.74,0,0,1-4.53,3.14,19.71,19.71,0,0,1-7.4,1.17,21.32,21.32,0,0,1-8.36-1.27,12,12,0,0,1-4.5-3.31,10.61,10.61,0,0,1-2.18-4.27,46.74,46.74,0,0,1-.76-9.77V11.86"/>
    <path class="cls-1" d="M114,11.86V36.28a25.06,25.06,0,0,1-.85,7.41A10.5,10.5,0,0,1,109,49.13a13.7,13.7,0,0,1-7.89,2.05q-5.74,0-8.84-3.22t-3.12-9.43"/>
    <g>
        <line class="cls-1" x1="207.02" y1="11.86" x2="207.02" y2="56.15"/>
        <line class="cls-1" x1="235.33" y1="11.86" x2="235.33" y2="56.15"/>
        <line class="cls-1" x1="207.02" y1="34" x2="235.33" y2="34"/>
    </g>
    <polyline class="cls-1" points="169.45 56.15 169.45 16.84 173.7 16.84 190.68 51.16 194.93 51.16 194.93 11.86"/>
    <line class="cls-1" x1="291.67" y1="11.86" x2="291.67" y2="56.15"/>
</svg>