<svg
        id="图层_1"
        data-name="图层 1"
        xmlns="http://www.w3.org/2000/svg"
        viewBox="0 0 294 44.35">
    <defs>
        <style>.cls-1{fill:none;stroke:#000;stroke-miterlimit:10;stroke-width:10px;}</style>
    </defs>
    <title>dujunhui</title>
    <path class="cls-1" d="M35.32,26.23A15,15,0,0,0,32,20.67a11.49,11.49,0,0,0-5.17-3.16,24.75,24.75,0,0,0-6.53-.66H7.67V51.18h13a21,21,0,0,0,6.14-.73,12.2,12.2,0,0,0,4.87-2.74,15.14,15.14,0,0,0,3.68-6.07,22.56,22.56,0,0,0,1.05-7.31A25.34,25.34,0,0,0,35.32,26.23Z" transform="translate(-2.67 -11.84)"/>
    <path class="cls-1" d="M78.2,11.86V32.07a52,52,0,0,1-.63,9.79,10.84,10.84,0,0,1-2.32,4.83,11.74,11.74,0,0,1-4.53,3.14A19.71,19.71,0,0,1,63.31,51a21.32,21.32,0,0,1-8.36-1.27,12,12,0,0,1-4.5-3.31,10.61,10.61,0,0,1-2.18-4.27,46.74,46.74,0,0,1-.76-9.77V11.86" transform="translate(-2.67 -11.84)"/>
    <path class="cls-1" d="M157.2,11.86V32.07a52,52,0,0,1-.63,9.79,10.84,10.84,0,0,1-2.32,4.83,11.74,11.74,0,0,1-4.53,3.14,19.71,19.71,0,0,1-7.4,1.17,21.32,21.32,0,0,1-8.36-1.27,12,12,0,0,1-4.5-3.31,10.61,10.61,0,0,1-2.18-4.27,46.74,46.74,0,0,1-.76-9.77V11.86" transform="translate(-2.67 -11.84)"/>
    <path class="cls-1" d="M278.66,11.86V32.07a52,52,0,0,1-.63,9.79,10.84,10.84,0,0,1-2.32,4.83,11.74,11.74,0,0,1-4.53,3.14,19.71,19.71,0,0,1-7.4,1.17,21.32,21.32,0,0,1-8.36-1.27,12,12,0,0,1-4.5-3.31,10.61,10.61,0,0,1-2.18-4.27,46.74,46.74,0,0,1-.76-9.77V11.86" transform="translate(-2.67 -11.84)"/>
    <path class="cls-1" d="M114,11.86V36.28a25.06,25.06,0,0,1-.85,7.41A10.5,10.5,0,0,1,109,49.13a13.7,13.7,0,0,1-7.89,2.05q-5.74,0-8.84-3.22t-3.12-9.43" transform="translate(-2.67 -11.84)"/>
    <line class="cls-1" x1="204.35" y1="0.02" x2="204.35" y2="44.32"/>
    <line class="cls-1" x1="232.66" y1="0.02" x2="232.66" y2="44.32"/>
    <line class="cls-1" x1="204.35" y1="22.17" x2="232.66" y2="22.17"/>
    <polyline class="cls-1" points="166.78 44.31 166.78 5 171.03 5 188.01 39.32 192.26 39.32 192.26 0.02"/>
    <line class="cls-1" x1="289" y1="0.02" x2="289" y2="44.32"/>
</svg>